# xmcd
#
# Track frame offsets:
#  150
#  13702
#  25005
#  38930
#  55885
#  67247
#  77635
#  89708
#  101566
#  116065
#  129345
#  142897
#  154200
#  168125
#  185080
#  196442
#  206830
#  218903
#  230761
#  245260
#  258540
#  272092
#  283395
#  297320
#  314275
#  325637
#  336025
#
# Disc length: 4639 seconds
#
# Revision: 0
# Processed by: cddbd v1.5.2PL0 Copyright (c) Steve Scherf et al.
# Submitted via: Collectorz.com_Music_Collector 6.11
#
DISCID=9f121d1b
DTITLE=Conway Twitty - 20 Greatest Hits
DYEAR=1900
DGENRE=Country-Pop
TTITLE0=After All the Good is Gone
TTITLE1=As Soon As I Hang The Phone
TTITLE2=Baby's Gone
TTITLE3=Don't Cry Joni
TTITLE4=Hello Darlin'
TTITLE5=(I Can't Believe) She Gives It
TTITLE6=(Lying Here With) Linda on My
TTITLE7=To See An Angel Cry
TTITLE8=You've Never Been This Far Bef
TTITLE9=Danny Boy
TTITLE10=After All the Good is Gone
TTITLE11=As Soon As I Hang The Phone
TTITLE12=Baby's Gone
TTITLE13=Don't Cry Joni
TTITLE14=Hello Darlin'
TTITLE15=(I Can't Believe) She Gives It
TTITLE16=(Lying Here With) Linda on My
TTITLE17=To See An Angel Cry
TTITLE18=You've Never Been This Far Bef
TTITLE19=Danny Boy
TTITLE20=After All the Good is Gone
TTITLE21=As Soon As I Hang The Phone
TTITLE22=Baby's Gone
TTITLE23=Don't Cry Joni
TTITLE24=Hello Darlin'
TTITLE25=(I Can't Believe) She Gives It
TTITLE26=(Lying Here With) Linda on My
EXTD=
EXTT0=
EXTT1=
EXTT2=
EXTT3=
EXTT4=
EXTT5=
EXTT6=
EXTT7=
EXTT8=
EXTT9=
EXTT10=
EXTT11=
EXTT12=
EXTT13=
EXTT14=
EXTT15=
EXTT16=
EXTT17=
EXTT18=
EXTT19=
EXTT20=
EXTT21=
EXTT22=
EXTT23=
EXTT24=
EXTT25=
EXTT26=
PLAYORDER=
